<?xml version="1.0" encoding="utf-8"?>
<!-- Generator: Adobe Illustrator 24.1.3, SVG Export Plug-In . SVG Version: 6.00 Build 0)  -->
<svg version="1.1" id="Layer_1" xmlns="http://www.w3.org/2000/svg" xmlns:xlink="http://www.w3.org/1999/xlink" x="0px" y="0px"
	 viewBox="0 0 220.5 62" style="enable-background:new 0 0 220.5 62;" xml:space="preserve">
<style type="text/css">
	.st0{fill:#FFFFFF;}
	.st1{fill:#C3CC00;}
	.st2{opacity:0.3;}
	.st3{clip-path:url(#SVGID_2_);}
	.st4{clip-path:url(#SVGID_4_);}
	.st5{clip-path:url(#SVGID_6_);}
	.st6{clip-path:url(#SVGID_8_);}
	.st7{fill:#47545D;}
</style>
<g id="Group_13" transform="translate(-188.534 -797.171)">
	<g id="Group_12" transform="translate(188.534 797.171)">
		<path id="Path_1" class="st0" d="M12.4,5.4c-1.3-0.2-2.6,0-3.6,0.8C8,7.1,7.6,8.3,7.7,9.5v2h4.3v5.2H7.7v28.1H2.2V16.8H0v-5.2h2.2
			V9.2C2.1,6.6,3,4.1,4.7,2.2C6.4,0.5,9-0.2,12.4,0.1L12.4,5.4z"/>
		<path id="Path_2" class="st0" d="M31.1,44.9h-5.3v-2.1c-0.4,0.8-1,1.5-1.8,1.8c-0.9,0.5-1.8,0.7-2.8,0.7c-4.9,0-7.4-3-7.4-9.1
			V11.5h5.5V36c0,2.9,1.1,4.4,3.2,4.4c2.1,0,3.2-1.5,3.2-4.4V11.5h5.5V44.9z"/>
		<path id="Path_3" class="st0" d="M49.2,44.9H33.7v-4.6L43,16.5h-8.8v-5h14.4v5l-9.3,23.4h9.9L49.2,44.9z"/>
		<path id="Path_4" class="st0" d="M69,36.3c0.2,2.5-0.7,4.9-2.3,6.7c-3.8,3.2-9.3,3.2-13.1,0c-1.7-1.8-2.5-4.2-2.4-6.7V20.1
			c-0.2-2.5,0.7-4.9,2.3-6.7c3.8-3.2,9.3-3.2,13.1,0c1.7,1.8,2.5,4.2,2.4,6.7v9.7H56.7V36c0,2.9,1.1,4.4,3.4,4.4
			c2.2,0,3.4-1.5,3.4-4.4v-1.9H69L69,36.3z M63.5,25.3v-4.9c0-2.9-1.1-4.4-3.4-4.4c-2.2,0-3.4,1.5-3.4,4.4v4.9L63.5,25.3z"/>
		<path id="Path_5" class="st0" d="M73.1,44.8V11H75v31.9h6.9v1.9H73.1z"/>
		<path id="Path_6" class="st0" d="M94.4,43.3c-2.5,2.5-6.5,2.5-9,0c-1.1-1.6-1.7-3.5-1.6-5.4v-20c-0.1-1.9,0.4-3.9,1.6-5.4
			c2.5-2.5,6.5-2.5,9,0c1.1,1.6,1.7,3.5,1.6,5.4v20C96.1,39.8,95.6,41.7,94.4,43.3 M94.1,17.9c0-3.6-1.4-5.4-4.1-5.4
			s-4.1,1.8-4.1,5.4v20c0,3.6,1.4,5.4,4.1,5.4s4.1-1.8,4.1-5.4V17.9z"/>
		<path id="Path_7" class="st0" d="M110.5,44.8l-0.4-2.3c-0.7,1.8-2.2,2.7-4.5,2.7c-1.6,0.1-3.2-0.6-4.2-1.9c-1-1.6-1.5-3.5-1.4-5.4
			v-20c-0.1-1.9,0.4-3.8,1.4-5.4c2.3-2.4,6.1-2.5,8.5-0.2c0.1,0.1,0.1,0.1,0.2,0.2c1.1,1.6,1.6,3.5,1.4,5.4v1.9h-1.9v-1.9
			c0.1-1.4-0.2-2.8-0.9-4c-1.3-1.6-3.7-1.9-5.4-0.6c-0.2,0.2-0.4,0.4-0.6,0.6c-0.7,1.2-1,2.6-0.9,4v20c-0.1,1.4,0.2,2.8,0.9,4
			c1.3,1.6,3.7,1.9,5.4,0.6c0.2-0.2,0.4-0.4,0.6-0.6c0.7-1.2,1-2.6,0.9-4v-7h-2.6v-1.8h4.6v15.7H110.5z"/>
		<rect id="Rectangle_2" x="115.9" y="11" class="st0" width="1.9" height="33.8"/>
		<path id="Path_8" class="st0" d="M133.6,40.6c-0.2,0.9-0.7,1.7-1.2,2.5c-0.5,0.7-1.2,1.2-2,1.6c-0.8,0.4-1.7,0.6-2.7,0.6
			c-1.8,0.1-3.4-0.7-4.5-2c-1.2-1.7-1.7-3.7-1.6-5.7v-1.6h1.9v1.5c-0.1,1.5,0.3,3.1,1.1,4.4c0.7,1.1,1.9,1.7,3.1,1.6
			c1.3,0,2.5-0.6,3.2-1.7c0.8-1.3,1.2-2.8,1.1-4.3c0-2.2-0.8-4.4-2.3-6.1l-5-5.9c-0.8-0.9-1.5-1.9-2-3c-0.6-1.3-0.9-2.6-0.9-4
			c-0.1-2,0.4-4,1.5-5.7c1.1-1.4,2.8-2.2,4.5-2.1c1.7-0.2,3.4,0.6,4.4,2.1c1,1.7,1.4,3.7,1.3,5.7v1.5h-1.9v-1.4
			c0.1-1.5-0.2-3-0.9-4.3c-0.6-1.1-1.7-1.8-2.9-1.7c-1.3-0.1-2.5,0.6-3.1,1.7c-0.7,1.3-1,2.8-1,4.3c0,1,0.2,2,0.6,2.9
			c0.4,0.9,1,1.8,1.7,2.5l5,5.9c0.8,1,1.5,2.1,2,3.3c0.6,1.4,0.9,2.9,0.8,4.4C134,38.5,133.9,39.5,133.6,40.6"/>
		<path id="Path_9" class="st0" d="M142.3,12.8v32h-1.9v-32h-4.9V11h11.8v1.8H142.3z"/>
		<rect id="Rectangle_3" x="149.8" y="11" class="st0" width="1.9" height="33.8"/>
		<path id="Path_10" class="st0" d="M166.4,43.3c-2.2,2.4-6,2.5-8.4,0.3c-0.1-0.1-0.2-0.2-0.3-0.3c-1-1.6-1.5-3.5-1.4-5.4v-20
			c-0.1-1.9,0.4-3.8,1.4-5.4c2.2-2.4,6-2.5,8.4-0.3c0.1,0.1,0.2,0.2,0.3,0.3c1,1.6,1.5,3.5,1.4,5.4v1.9h-1.9v-1.9
			c0.1-1.4-0.2-2.8-0.9-4c-1.3-1.6-3.6-1.9-5.2-0.6c-0.2,0.2-0.4,0.4-0.6,0.6c-0.6,1.2-0.9,2.6-0.9,4v20c-0.1,1.4,0.2,2.8,0.9,4
			c1.3,1.6,3.6,1.9,5.2,0.6c0.2-0.2,0.4-0.4,0.6-0.6c0.6-1.2,0.9-2.6,0.9-4V36h1.9v1.9C167.9,39.8,167.4,41.7,166.4,43.3"/>
		<path id="Path_11" class="st0" d="M182.4,40.6c-0.2,0.9-0.7,1.7-1.2,2.5c-0.5,0.7-1.2,1.2-2,1.6c-0.8,0.4-1.7,0.6-2.7,0.6
			c-1.8,0.1-3.4-0.7-4.5-2c-1.1-1.7-1.7-3.7-1.6-5.7v-1.6h1.9v1.5c-0.1,1.5,0.3,3.1,1.1,4.4c0.7,1.1,1.9,1.7,3.1,1.6
			c1.3,0,2.5-0.6,3.2-1.7c0.8-1.3,1.2-2.8,1.1-4.3c0-2.2-0.8-4.4-2.3-6.1l-5-5.9c-0.8-0.9-1.5-1.9-2-3c-0.6-1.3-0.9-2.6-0.9-4
			c-0.1-2,0.4-4,1.5-5.7c1.1-1.4,2.8-2.2,4.5-2.1c1.7-0.2,3.4,0.6,4.4,2.1c1,1.7,1.4,3.7,1.3,5.7v1.5h-1.9v-1.4
			c0.1-1.5-0.2-3-0.9-4.3c-0.6-1.1-1.7-1.8-2.9-1.7c-1.3-0.1-2.5,0.6-3.1,1.7c-0.7,1.3-1,2.8-1,4.3c0,1,0.2,2,0.6,2.9
			c0.4,0.9,1,1.8,1.7,2.5l5,5.9c0.8,1,1.5,2.1,2,3.3c0.6,1.4,0.9,2.9,0.8,4.4C182.9,38.5,182.7,39.5,182.4,40.6"/>
		<path id="Path_12" class="st0" d="M6.7,53.5c-0.5-0.2-1-0.3-1.5-0.3c-0.6,0-1.4,0.2-1.4,1.1c0,1.5,3.4,1.2,3.4,3.8
			c0,1.7-1.3,2.4-2.9,2.4c-0.6,0-1.1-0.1-1.6-0.3L2.9,59c0.5,0.2,1.1,0.4,1.6,0.4c0.8,0.1,1.5-0.5,1.6-1.3c0,0,0,0,0,0
			c0-1.8-3.4-1.3-3.4-3.7c0-1.4,1.1-2.2,2.5-2.2c0.6,0,1.1,0.1,1.7,0.3L6.7,53.5z"/>
		<path id="Path_13" class="st0" d="M19,52.3h4.4v1h-3.3v2.3h3v1h-3v2.6h3.3v1H19V52.3z"/>
		<path id="Path_14" class="st0" d="M35.3,52.3h1.9c1.6,0,3.1,0.2,3.1,2.1c0,0.9-0.7,1.7-1.6,1.8v0c0.4,0.1,0.5,0.3,0.8,0.8l1.5,3.2
			h-1.3l-1.2-2.7c-0.4-0.8-0.7-0.8-1.3-0.8h-0.7v3.5h-1.1L35.3,52.3z M36.4,55.7h1c1.1,0,1.7-0.5,1.7-1.2c0-0.7-0.5-1.2-1.6-1.2
			h-1.1V55.7z"/>
		<path id="Path_15" class="st0" d="M55.6,60.2h-1.4l-3-7.9h1.3l2.4,6.9h0l2.5-6.9h1.2L55.6,60.2z"/>
		<rect id="Rectangle_4" x="69.8" y="52.3" class="st0" width="1.1" height="7.9"/>
		<path id="Path_16" class="st0" d="M88.5,53.6c-0.5-0.3-1.1-0.4-1.6-0.4c-1.7,0-3.1,1.4-3.1,3.1c0,1.7,1.4,3.1,3.1,3.1l0,0
			c0.6,0,1.2-0.1,1.7-0.4l0.1,1.1c-0.6,0.2-1.2,0.3-1.8,0.3c-2.1,0.2-4-1.5-4.2-3.6c0-0.2,0-0.3,0-0.5c-0.1-2.2,1.6-4,3.8-4.1
			c0.1,0,0.2,0,0.4,0c0.6,0,1.2,0.1,1.8,0.3L88.5,53.6z"/>
		<path id="Path_17" class="st0" d="M100.2,52.3h4.4v1h-3.3v2.3h3v1h-3v2.6h3.3v1h-4.4V52.3z"/>
		<path id="Path_18" class="st0" d="M120.1,53.5c-0.5-0.2-1-0.3-1.5-0.3c-0.6,0-1.4,0.2-1.4,1.1c0,1.5,3.4,1.2,3.4,3.8
			c0,1.7-1.3,2.4-2.9,2.4c-0.6,0-1.1-0.1-1.6-0.3l0.1-1.1c0.5,0.2,1.1,0.4,1.6,0.4c0.8,0.1,1.5-0.5,1.6-1.3c0,0,0,0,0,0
			c0-1.8-3.4-1.3-3.4-3.7c0-1.4,1.1-2.2,2.5-2.2c0.6,0,1.1,0.1,1.7,0.3L120.1,53.5z"/>
		<rect id="Rectangle_5" x="145.5" y="52.3" class="st0" width="1.1" height="7.9"/>
		<path id="Path_19" class="st0" d="M158.8,52.3h1.5l3.5,6.4h0v-6.4h1.1v7.9h-1.5l-3.6-6.5h0v6.5h-1.1L158.8,52.3z"/>
		<path id="Path_20" class="st0" d="M182.5,53.6c-0.5-0.3-1.1-0.4-1.6-0.4c-1.7,0-3.1,1.4-3.1,3.1c0,1.7,1.4,3.1,3.1,3.1l0,0
			c0.6,0,1.2-0.1,1.7-0.4l0.1,1.1c-0.6,0.2-1.2,0.3-1.8,0.3c-2.1,0.2-4-1.5-4.2-3.6c0-0.2,0-0.4,0-0.5c-0.1-2.2,1.6-4,3.8-4.1
			c0.1,0,0.2,0,0.4,0c0.6,0,1.2,0.1,1.8,0.3L182.5,53.6z"/>
		<path id="Path_21" class="st1" d="M198.4,2.5c-3.3,3.3-3.3,8.6,0,11.9c0,0,0,0,0,0l3.2,3.2l-3.2,3.2c-3.3,3.3-3.3,8.6,0,11.9
			s8.6,3.3,11.9,0c3.3-3.3,3.3-8.6,0-11.9c0,0,0,0,0,0l-3.2-3.2l3.2-3.2c3.3-3.3,3.3-8.6,0-11.9S201.7-0.8,198.4,2.5 M208.8,26.7
			c0,2.5-2,4.5-4.5,4.5c-2.5,0-4.5-2-4.5-4.5c0-1.2,0.5-2.3,1.3-3.2l3.2-3.2l3.2,3.2C208.3,24.4,208.8,25.5,208.8,26.7 M208.8,8.5
			c0,1.2-0.5,2.3-1.3,3.2l-3.2,3.2l-3.2-3.2c-1.8-1.8-1.8-4.6,0-6.4c1.8-1.8,4.6-1.8,6.4,0C208.3,6.1,208.8,7.3,208.8,8.5"/>
		<g id="Group_6" transform="translate(201.798 15.081)" class="st2">
			<g id="Group_5">
				<g>
					<defs>
						<rect id="SVGID_1_" x="0" y="0" width="10.1" height="10.1"/>
					</defs>
					<clipPath id="SVGID_2_">
						<use xlink:href="#SVGID_1_"  style="overflow:visible;"/>
					</clipPath>
					<g id="Group_4" class="st3">
						<g id="Group_3" transform="translate(2.515 2.516)">
							<g>
								<defs>
									<polygon id="SVGID_3_" points="2.8,0 0,2.7 2.3,5 2.3,5 5,2.3 									"/>
								</defs>
								<clipPath id="SVGID_4_">
									<use xlink:href="#SVGID_3_"  style="overflow:visible;"/>
								</clipPath>
								<g id="Group_2" class="st4">
									
										<image style="overflow:visible;enable-background:new    ;" width="78" height="78" id="Rectangle_6" xlink:href="B928C312885EDEFF.png"  transform="matrix(0.1299 0 0 0.1299 -2.582 -2.5502)">
									</image>
								</g>
							</g>
						</g>
					</g>
				</g>
			</g>
		</g>
		<g id="Group_11" transform="translate(196.769 10.051)" class="st2">
			<g id="Group_10">
				<g>
					<defs>
						<rect id="SVGID_5_" x="0" y="0" width="10.1" height="10.1"/>
					</defs>
					<clipPath id="SVGID_6_">
						<use xlink:href="#SVGID_5_"  style="overflow:visible;"/>
					</clipPath>
					<g id="Group_9" class="st5">
						<g id="Group_8" transform="translate(2.517 2.514)">
							<g>
								<defs>
									<polygon id="SVGID_7_" points="0,2.8 0,2.8 2.3,5 5,2.3 2.7,0 									"/>
								</defs>
								<clipPath id="SVGID_8_">
									<use xlink:href="#SVGID_7_"  style="overflow:visible;"/>
								</clipPath>
								<g id="Group_7" class="st6">
									
										<image style="overflow:visible;enable-background:new    ;" width="79" height="78" id="Rectangle_8" xlink:href="B928C312885EDEFD.png"  transform="matrix(0.1299 0 0 0.1299 -2.623 -2.5847)">
									</image>
								</g>
							</g>
						</g>
					</g>
				</g>
			</g>
		</g>
		<path id="Path_24" class="st1" d="M205,62c-6.1,0-11-4.9-11-11s4.9-11,11-11s11,4.9,11,11l0,0C216,57.1,211.1,62,205,62 M205,43.3
			c-4.2,0-7.7,3.4-7.7,7.7s3.4,7.7,7.7,7.7s7.7-3.4,7.7-7.7C212.7,46.7,209.3,43.3,205,43.3"/>
		<path id="Path_25" class="st7" d="M209.9,53.9c-1.2,0-2.1-0.9-2.1-2.1c0-0.5,0.2-1,0.5-1.3l3.4-4.1c0.6-0.8,1.8-1,2.7-0.5l4.6,2.6
			c1,0.6,1.4,1.8,0.8,2.9s-1.8,1.4-2.9,0.8l-3.1-1.7l-2.3,2.8C211.1,53.6,210.5,53.9,209.9,53.9"/>
		<path id="Path_26" class="st0" d="M213.3,46c0.3,0,0.6,0.1,0.8,0.2l4.6,2.6c0.8,0.4,1.1,1.4,0.7,2.2s-1.4,1.1-2.2,0.7l-3.4-1.9
			l-2.5,3.1c-0.6,0.7-1.6,0.8-2.3,0.2c-0.7-0.6-0.8-1.6-0.2-2.3l0,0l3.4-4.1C212.3,46.3,212.8,46,213.3,46 M213.3,45.1
			c-0.8,0-1.5,0.3-2,0.9l-3.4,4.1c-0.9,1.1-0.7,2.7,0.4,3.6c1.1,0.9,2.7,0.7,3.6-0.4l2-2.5l2.8,1.5c1.2,0.7,2.8,0.3,3.5-0.9
			s0.3-2.8-0.9-3.5c0,0-0.1,0-0.1,0l-4.6-2.6C214.1,45.2,213.7,45.1,213.3,45.1"/>
	</g>
</g>
</svg>
