<svg width="27" height="17" viewBox="0 0 27 17" fill="none" xmlns="http://www.w3.org/2000/svg">
<path d="M0.363647 1.20821C0.363647 0.540354 0.949529 0 1.67072 0H12.1929C12.5396 9.54976e-09 12.8721 0.127293 13.1172 0.353876C13.3623 0.580459 13.5 0.887771 13.5 1.20821C13.5 1.52864 13.3623 1.83596 13.1172 2.06254C12.8721 2.28912 12.5396 2.41642 12.1929 2.41642H1.67072C1.32406 2.41642 0.991602 2.28912 0.746479 2.06254C0.501356 1.83596 0.363647 1.52864 0.363647 1.20821Z" fill="white"/>
<path d="M0.363647 8.50006C0.363647 7.83221 0.949529 7.29185 1.67072 7.29185H25.3293C25.676 7.29185 26.0084 7.41915 26.2535 7.64573C26.4987 7.87231 26.6364 8.17963 26.6364 8.50006C26.6364 8.8205 26.4987 9.12781 26.2535 9.35439C26.0084 9.58098 25.676 9.70827 25.3293 9.70827H1.67072C1.32406 9.70827 0.991602 9.58098 0.746479 9.35439C0.501356 9.12781 0.363647 8.8205 0.363647 8.50006Z" fill="white"/>
<path d="M1.67072 14.5837C1.32406 14.5837 0.991602 14.711 0.746479 14.9376C0.501356 15.1642 0.363647 15.4715 0.363647 15.7919C0.363647 16.1124 0.501356 16.4197 0.746479 16.6462C0.991602 16.8728 1.32406 17.0001 1.67072 17.0001H17.4475C17.7941 17.0001 18.1266 16.8728 18.3717 16.6462C18.6168 16.4197 18.7546 16.1124 18.7546 15.7919C18.7546 15.4715 18.6168 15.1642 18.3717 14.9376C18.1266 14.711 17.7941 14.5837 17.4475 14.5837H1.67072Z" fill="white"/>
</svg>
